<svg width="870" height="395" viewBox="0 0 870 395" fill="none" xmlns="http://www.w3.org/2000/svg">
<path d="M510.721 200.239C508.221 203.84 500.074 210.639 496.383 213.9L485.989 223.203C483.076 225.772 478.964 230.214 474.999 230.778C468.584 231.691 465.039 225.263 467.802 220.068C469.225 217.4 474.36 213.201 476.829 211.023L493.001 196.552C495.815 194.043 502.497 190.195 499.219 186.127C496.381 182.613 488.255 176.42 484.334 173.702C482.428 172.379 478.486 169.704 476.23 169.416C473.872 169.124 470.486 170.711 468.225 171.482C464.422 172.777 461.218 173.607 457.169 173.917C438.299 175.381 419.768 165.525 411.397 148.627C408.863 143.504 407.566 137.987 407.07 132.389C406.557 126.537 407.657 117.528 409.846 112.117C414.097 101.641 421.552 92.6798 432.225 87.7673C452.983 78.2803 478.989 87.2098 490.314 106.8C496.76 117.886 498.16 133.363 493.703 145.239C491.931 149.962 489.071 154.123 486.458 158.4C493.248 161.252 500.744 167.337 506.003 172.393C514.833 180.885 522.646 189.736 529.073 200.102C531.717 204.358 535.06 210.692 537.129 215.246C537.823 216.779 539.138 220.939 540.33 221.83C541.814 222.945 544.495 221.946 546.139 221.601C551.128 220.575 554.465 220.425 559.541 220.931C575.013 222.462 589.76 232.25 596.589 246.031C610.45 274.021 591.441 310.213 558.458 310.704C554.05 310.769 549.344 310.273 545.124 308.947C520.898 301.306 507.941 280.066 512.714 255.965C513.251 253.253 513.249 252.172 514.283 249.418C515.729 245.571 518.798 240.18 521.317 236.896C522.494 235.375 525.926 232.052 526.108 230.502C526.354 228.429 524.199 223.359 523.335 221.318C520.48 214.593 515.696 205.683 510.721 200.239ZM473.968 127.476C475.711 113.524 459.187 102.695 446.087 105.464C440.606 106.626 434.554 110.984 431.819 115.786L429.716 122.157C428.639 125.172 428.264 127.237 429.061 130.415C430.179 127.075 431.064 124.724 433.407 121.954C440.241 113.878 452.577 111.332 462.343 116.113C468.097 118.931 470.071 122.91 473.968 127.476ZM789.825 222.088C805.469 225.23 818.298 235.457 824.209 249.996C832.447 270.269 824 295.92 804.409 306.348C798.483 309.505 794.19 310.554 787.502 311.18C780.428 311.842 774.567 310.769 767.883 308.501C762.419 306.641 757.455 303.49 753.24 299.623C748.366 295.153 744.302 290.411 741.652 284.374C731.111 260.346 743.061 230.738 769.009 223.035C776.665 220.764 781.954 220.823 789.825 222.088ZM340.329 135.234L339.793 112.465L339.655 95.4731C339.751 93.2738 339.75 89.997 341.002 88.1554C344.205 83.4441 357.481 83.6904 360.227 89.1021C361.913 92.4227 361.608 104.743 361.668 109.04L362.494 152.38C362.568 157.855 364.226 168.425 358.296 171.24C354.203 173.19 346.52 172.77 342.755 170.025C340.595 168.449 338.152 164.846 336.399 162.661L324.501 147.685L304.858 122.906L305.176 145.603L305.377 160.497C305.378 162.869 305.407 166.529 304.108 168.553C300.756 173.761 287.374 173.57 284.534 167.626C283.053 164.523 283.333 151.721 283.279 147.608L282.453 104.269C282.38 99.0333 280.842 88.2782 286.662 85.729C290.772 83.9266 298.277 84.4865 302.013 87.1649C304.104 88.662 306.777 92.3193 308.411 94.402L320.235 109.601L340.329 135.234ZM785.974 242.623C782.254 242.11 779.192 242.004 775.568 243.09C755.823 248.998 753.056 280.217 775.084 288.91C787.017 293.618 801.317 286.483 804.618 274.644C808.58 260.43 801.29 246.067 785.974 242.623ZM658.37 285.329C658.433 289.905 659.321 301.924 657.404 305.489C654.672 310.567 642.85 310.733 638.907 306.792C635.67 303.558 636.66 293.906 636.469 289.451L635.631 242.578C635.561 237.866 634.28 227.576 637.761 224.239C640.669 221.464 646.185 221.86 650.031 221.876C659.403 221.925 673.058 221.196 681.732 223.445C683.641 223.943 687.624 225.785 689.428 226.751C704.652 234.873 708.759 250.509 703.7 265.586C701.252 272.889 697.783 273.637 698.176 277.191C698.447 279.588 704.274 291.213 705.659 294.469C706.766 297.063 708.201 300.675 707.007 303.384C704.713 308.578 693.667 312.647 688.855 308.324C686.724 306.397 685.82 303.502 684.628 300.994C682.637 296.818 678.911 289.652 678.104 285.441L658.37 285.329ZM228.145 84.6678C235.702 86.1764 235.54 90.2185 235.833 96.7599L236.154 117.341C236.268 125.603 236.932 139.406 233.815 146.936C231.692 152.058 228.072 158.899 224.112 162.82C214.117 172.706 197.116 176.469 183.515 171.047C168.95 165.236 159.989 152.988 157.282 138.099L156.256 110.933L156.027 94.6181C155.997 91.5588 155.885 88.5285 158.377 86.2807C160.575 84.303 164.617 84.0602 167.519 84.2069C169.24 84.297 172.187 84.62 173.717 85.3749C178.894 87.9256 178.214 97.8136 178.283 102.616L178.58 123.895C178.651 129.024 178.318 133.469 179.949 138.465C181.958 144.624 185.39 149.843 192.143 151.569C198.625 153.227 206.574 151.043 210.281 145.579C211.817 143.322 212.601 140.705 213.421 138.135C214.905 133.439 214.39 129.189 214.325 124.31L213.788 101.54C213.673 93.0586 211.846 85.1308 223.119 84.3693C225.038 84.235 226.272 84.4204 228.145 84.6678ZM305.068 122.269L304.407 122.053L304.858 122.906L305.068 122.269ZM657.777 242.772C657.222 246.227 657.366 249.782 657.541 253.286C657.648 255.248 657.533 262.229 658.644 263.454C660.024 264.973 665.451 264.506 667.465 264.439C672.619 264.263 677.481 264.973 681.509 261.139C684.972 257.832 687.312 246.045 674.41 243.406L657.777 242.772ZM102.941 84.6249C104.764 85.1371 105.899 85.4041 107.16 86.9743C110.125 90.6784 109.465 104.676 109.534 109.746L109.769 125.356C110.269 139.832 111.733 152.808 100.363 163.933C97.2377 166.989 94.0719 169.214 89.8795 170.756C78.4357 174.965 66.8939 172.905 57.1164 165.747C53.8179 163.34 49.103 158.724 49.6918 154.391C50.1489 151.01 56.8182 142.788 62.8065 144.08C68.2384 145.259 73.1512 155.109 82.4818 150.158C83.5741 149.578 84.6666 148.665 85.4915 147.763C88.9536 143.976 88.0085 138.477 87.947 133.739L87.4876 101.111C87.4377 97.204 86.9062 90.0537 89.5293 86.9665C92.4911 83.4741 98.762 83.9761 102.941 84.6249ZM574.811 252.304C569.932 242.311 554.869 239.071 545.427 244.117C534.265 250.091 529.231 266.552 536.569 277.196C536.758 273.099 536.299 268.811 537.851 264.907C541.758 255.052 552.472 248.481 563.385 249.21C567.468 249.482 570.988 251.024 574.811 252.304ZM423.694 208.766C433.228 210.541 438.99 215.155 441.965 224.312C443.572 229.265 443.349 235.377 447.341 239.164C450.57 242.227 460.591 241.437 465.679 243.506C477.338 248.251 485.578 259.197 487.818 271.108C491.87 292.678 476.288 310.152 455.354 314.697C448.295 316.224 441.334 316.436 434.413 313.802C427.666 311.238 424.121 307.294 421.329 300.866C419.587 296.871 418.868 291.862 415.576 288.793C410.362 283.936 402.114 285.786 395.251 283.82C387.897 281.715 381.932 276.209 379.025 269.354C376.57 263.551 375.978 257.002 376.389 250.838C377.545 233.475 386.318 219.481 402.775 212.241C409.622 209.224 416.129 207.967 423.694 208.766ZM421.311 224.853C416.799 224.412 413.619 225.375 409.561 227.174C398.439 232.116 394.065 240.617 393.185 252.106C392.919 255.661 392.902 259.659 394.343 263.04C397.82 271.205 404.664 267.438 415.062 270.394C423.424 272.766 429.529 278.183 433.351 285.769C436.654 292.331 435.556 297.81 442.856 299.319C445.779 299.916 448.964 299.45 451.812 298.808C465.971 295.602 475.948 283.84 470.03 269.516C469.047 267.146 467.685 264.688 465.857 262.924C459.7 256.091 453.771 258.413 446.034 256.429C441.557 255.528 436.815 252.237 433.885 248.869C430.533 245.025 428.722 240.64 427.538 235.825C426.385 231.154 426.769 226.443 421.311 224.853ZM537.23 277.412L536.569 277.196L537.02 278.049L537.23 277.412ZM311.316 287.415L340.551 287.582C344.413 287.598 351.476 287.165 354.944 288.35C361.147 290.475 361.265 299.544 359.061 304.47C357.025 309.014 352.593 308.819 348.164 308.886L319.654 308.737L299.967 308.479C297.207 308.344 293.478 307.773 291.596 305.736C288.915 302.323 289.452 291.647 289.389 287.292L288.534 241.824C288.47 237.072 287.35 226.114 291.382 223.016C294.865 220.343 302.481 220.982 306.883 221.006L342.769 220.993C347.709 221.023 355.277 220.1 357.929 225.219C360.352 229.881 359.843 239.649 354.149 241.681C351.234 242.724 342.805 242.482 339.341 242.463L310.904 242.092L310.632 254.006L331.067 254.213C333.881 254.139 340.006 254.085 342.349 255.53C347.309 258.602 347.555 271.23 342.468 274.173C339.969 275.621 335.022 275.588 332.056 275.613L310.928 275.285L311.316 287.415ZM200.606 241.257L181.602 241.152C178.936 241.133 174.063 241.21 171.705 240.078C166.681 237.662 166.242 226.793 171.319 224.46C174.513 222.993 189.556 223.537 194.001 223.56L223.239 223.72L245.236 223.634C247.419 223.898 250.182 224.089 251.817 225.79C254.974 228.738 255.189 237.599 251.195 239.941C248.724 241.39 243.79 241.278 240.877 241.27L221.873 241.165L222.795 291.597C222.858 296.306 224.064 306.627 219.952 309.658C216.739 312.022 207.639 312.148 204.401 309.647C202.863 308.45 202.175 306.989 201.771 305.17L200.923 279.488L200.606 241.257Z" fill="#FAFF00"/>
<path d="M500.527 184.475C498.028 188.076 489.881 194.876 486.19 198.136L475.796 207.439C472.883 210.008 468.771 214.451 464.806 215.015C458.391 215.928 454.846 209.499 457.609 204.304C459.032 201.636 464.166 197.437 466.636 195.259L482.808 180.789C485.622 178.279 492.304 174.432 489.026 170.364C486.188 166.849 478.062 160.657 474.14 157.939C472.235 156.615 468.293 153.941 466.037 153.653C463.679 153.361 460.293 154.947 458.032 155.718C454.229 157.014 451.025 157.843 446.975 158.154C428.106 159.618 409.574 149.761 401.204 132.863C398.67 127.74 397.373 122.223 396.877 116.626C396.364 110.774 397.464 101.764 399.653 96.353C403.904 85.8768 411.359 76.9161 422.032 72.0036C442.79 62.5166 468.796 71.4461 480.121 91.0358C486.567 102.122 487.967 117.599 483.51 129.475C481.738 134.198 478.878 138.359 476.264 142.636C483.055 145.488 490.551 151.574 495.809 156.629C504.64 165.121 512.453 173.972 518.88 184.339C521.524 188.594 524.866 194.928 526.936 199.483C527.63 201.016 528.945 205.176 530.137 206.066C531.621 207.182 534.302 206.182 535.946 205.837C540.935 204.811 544.272 204.661 549.348 205.167C564.82 206.698 579.567 216.486 586.396 230.268C600.257 258.258 581.247 294.449 548.265 294.94C543.856 295.006 539.15 294.51 534.931 293.183C510.705 285.543 497.748 264.302 502.521 240.201C503.057 237.489 503.056 236.409 504.089 233.654C505.536 229.807 508.605 224.416 511.124 221.132C512.3 219.612 515.733 216.288 515.915 214.738C516.161 212.665 514.006 207.596 513.141 205.554C510.287 198.829 505.503 189.919 500.527 184.475ZM463.775 111.713C465.518 97.7606 448.994 86.9311 435.894 89.7002C430.413 90.8624 424.361 95.22 421.626 100.022L419.523 106.393C418.446 109.408 418.071 111.474 418.868 114.651C419.986 111.311 420.871 108.961 423.214 106.19C430.048 98.1143 442.384 95.5688 452.149 100.349C457.904 103.167 459.878 107.146 463.775 111.713ZM779.632 206.325C795.276 209.466 808.105 219.693 814.016 234.232C822.254 254.505 813.807 280.156 794.216 290.584C788.29 293.741 783.997 294.79 777.309 295.417C770.235 296.078 764.373 295.006 757.689 292.737C752.226 290.877 747.262 287.726 743.047 283.859C738.173 279.389 734.109 274.647 731.459 268.61C720.918 244.582 732.868 214.974 758.816 207.271C766.472 205 771.76 205.059 779.632 206.325ZM330.136 119.47L329.6 96.7009L329.462 79.7094C329.558 77.5101 329.557 74.2333 330.809 72.3917C334.012 67.6804 347.287 67.9267 350.034 73.3384C351.72 76.659 351.415 88.9789 351.475 93.2768L352.301 136.616C352.375 142.092 354.033 152.661 348.103 155.477C344.01 157.427 336.327 157.006 332.562 154.261C330.402 152.685 327.959 149.082 326.206 146.897L314.308 131.921L294.665 107.143L294.983 129.839L295.184 144.734C295.185 147.105 295.214 150.765 293.915 152.79C290.563 157.998 277.181 157.807 274.34 151.862C272.86 148.759 273.14 135.957 273.086 131.844L272.26 88.5048C272.187 83.2697 270.649 72.5145 276.469 69.9653C280.579 68.1629 288.084 68.7228 291.82 71.4012C293.911 72.8984 296.584 76.5556 298.218 78.6383L310.042 93.8372L330.136 119.47ZM775.781 226.859C772.061 226.346 768.999 226.24 765.375 227.326C745.63 233.234 742.863 264.454 764.891 273.146C776.824 277.854 791.124 270.719 794.425 258.881C798.387 244.666 791.097 230.304 775.781 226.859ZM648.177 269.566C648.24 274.141 649.127 286.16 647.211 289.725C644.479 294.803 632.657 294.969 628.714 291.029C625.477 287.794 626.467 278.142 626.276 273.687L625.438 226.814C625.368 222.103 624.086 211.812 627.568 208.476C630.476 205.701 635.992 206.096 639.838 206.113C649.21 206.162 662.865 205.432 671.539 207.681C673.448 208.179 677.431 210.022 679.235 210.987C694.458 219.109 698.566 234.746 693.506 249.822C691.059 257.125 687.589 257.873 687.983 261.427C688.254 263.825 694.08 275.449 695.466 278.706C696.573 281.299 698.008 284.912 696.814 287.621C694.52 292.814 683.474 296.884 678.662 292.56C676.531 290.633 675.627 287.739 674.435 285.23C672.444 281.055 668.718 273.889 667.911 269.678L648.177 269.566ZM217.952 68.9042C225.509 70.4127 225.347 74.4548 225.64 80.9962L225.961 101.578C226.075 109.84 226.739 123.642 223.622 131.172C221.499 136.294 217.879 143.135 213.919 147.056C203.924 156.943 186.923 160.705 173.322 155.283C158.757 149.472 149.796 137.224 147.088 122.336L146.062 95.1696L145.833 78.8544C145.803 75.7951 145.692 72.7648 148.184 70.517C150.382 68.5393 154.424 68.2965 157.326 68.4433C159.047 68.5333 161.993 68.8564 163.524 69.6112C168.7 72.1619 168.021 82.0499 168.09 86.8526L168.387 108.132C168.458 113.26 168.125 117.706 169.756 122.701C171.765 128.86 175.197 134.08 181.949 135.805C188.432 137.463 196.38 135.28 200.088 129.815C201.624 127.558 202.408 124.941 203.228 122.371C204.712 117.675 204.196 113.426 204.132 108.546L203.595 85.7763C203.48 77.295 201.653 69.3671 212.926 68.6056C214.845 68.4713 216.079 68.6567 217.952 68.9042ZM294.875 106.506L294.214 106.289L294.665 107.143L294.875 106.506ZM647.584 227.009C647.029 230.463 647.173 234.019 647.348 237.523C647.455 239.484 647.34 246.465 648.451 247.691C649.831 249.21 655.258 248.742 657.272 248.675C662.426 248.499 667.288 249.21 671.316 245.375C674.779 242.068 677.119 230.281 664.217 227.643L647.584 227.009ZM92.7483 68.8612C94.571 69.3734 95.7058 69.6404 96.9666 71.2107C99.9323 74.9147 99.272 88.9122 99.3405 93.9827L99.5761 109.593C100.076 124.068 101.54 137.045 90.1701 148.169C87.0446 151.226 83.8788 153.45 79.6864 154.992C68.2426 159.201 56.7008 157.142 46.9233 149.984C43.6248 147.576 38.9099 142.961 39.4987 138.627C39.9558 135.247 46.6251 127.024 52.6133 128.316C58.0452 129.496 62.958 139.345 72.2887 134.395C73.381 133.814 74.4735 132.901 75.2984 132C78.7604 128.212 77.8154 122.714 77.7539 117.976L77.2945 85.3476C77.2446 81.4403 76.7131 74.29 79.3362 71.2028C82.298 67.7105 88.5689 68.2124 92.7483 68.8612ZM564.618 236.541C559.738 226.547 544.676 223.307 535.233 228.353C524.072 234.328 519.038 250.788 526.376 261.432C526.565 257.335 526.106 253.047 527.658 249.143C531.565 239.288 542.279 232.717 553.192 233.446C557.275 233.718 560.794 235.26 564.618 236.541ZM413.501 193.002C423.035 194.777 428.797 199.391 431.772 208.548C433.379 213.502 433.156 219.614 437.148 223.401C440.377 226.464 450.398 225.673 455.486 227.742C467.145 232.487 475.385 243.433 477.625 255.344C481.677 276.914 466.095 294.388 445.161 298.933C438.102 300.461 431.141 300.672 424.219 298.038C417.473 295.475 413.928 291.53 411.136 285.102C409.394 281.107 408.675 276.099 405.383 273.029C400.169 268.172 391.921 270.023 385.057 268.057C377.704 265.951 371.739 260.446 368.832 253.591C366.376 247.787 365.785 241.238 366.195 235.075C367.351 217.711 376.124 203.717 392.582 196.478C399.429 193.461 405.936 192.203 413.501 193.002ZM411.118 209.089C406.606 208.648 403.426 209.612 399.368 211.41C388.246 216.352 383.872 224.853 382.992 236.342C382.726 239.897 382.709 243.896 384.149 247.276C387.627 255.441 394.471 251.675 404.868 254.63C413.231 257.002 419.336 262.42 423.158 270.006C426.461 276.567 425.363 282.046 432.663 283.556C435.586 284.153 438.771 283.686 441.619 283.044C455.778 279.839 465.755 268.076 459.837 253.752C458.854 251.383 457.492 248.924 455.664 247.16C449.506 240.327 443.577 242.65 435.841 240.666C431.364 239.764 426.622 236.473 423.692 233.105C420.34 229.261 418.529 224.876 417.345 220.061C416.192 215.391 416.576 210.679 411.118 209.089ZM527.037 261.649L526.376 261.432L526.827 262.286L527.037 261.649ZM301.123 271.651L330.358 271.819C334.22 271.834 341.283 271.401 344.751 272.586C350.954 274.712 351.072 283.781 348.867 288.706C346.832 293.25 342.4 293.055 337.971 293.122L309.461 292.973L289.774 292.715C287.014 292.581 283.285 292.009 281.403 289.972C278.722 286.56 279.259 275.883 279.196 271.528L278.341 226.06C278.276 221.308 277.157 210.35 281.189 207.252C284.672 204.58 292.288 205.219 296.69 205.242L332.576 205.229C337.515 205.259 345.083 204.336 347.736 209.455C350.158 214.117 349.65 223.885 343.956 225.917C341.041 226.96 332.612 226.719 329.147 226.7L300.711 226.328L300.438 238.242L320.874 238.45C323.688 238.375 329.813 238.321 332.155 239.766C337.116 242.838 337.362 255.466 332.275 258.409C329.776 259.857 324.829 259.825 321.863 259.85L300.735 259.521L301.123 271.651ZM190.413 225.493L171.409 225.388C168.743 225.369 163.87 225.446 161.512 224.314C156.488 221.898 156.049 211.029 161.126 208.696C164.32 207.229 179.363 207.773 183.808 207.796L213.046 207.957L235.042 207.87C237.226 208.134 239.989 208.326 241.624 210.027C244.781 212.974 244.996 221.835 241.002 224.177C238.531 225.626 233.596 225.514 230.684 225.506L211.68 225.401L212.602 275.833C212.665 280.542 213.871 290.864 209.758 293.894C206.546 296.259 197.446 296.384 194.208 293.883C192.67 292.687 191.982 291.225 191.578 289.407L190.73 263.724L190.413 225.493Z" fill="#FF0000"/>
<path d="M505.632 191.399C503.133 195 494.986 201.799 491.295 205.059L480.901 214.363C477.988 216.931 473.876 221.374 469.911 221.938C463.496 222.851 459.951 216.423 462.714 211.228C464.137 208.56 469.271 204.361 471.741 202.183L487.913 187.712C490.727 185.203 497.409 181.355 494.131 177.287C491.293 173.773 483.167 167.58 479.245 164.862C477.34 163.539 473.398 160.864 471.142 160.576C468.784 160.284 465.398 161.871 463.137 162.642C459.334 163.937 456.13 164.766 452.08 165.077C433.211 166.541 414.68 156.685 406.309 139.787C403.775 134.664 402.478 129.147 401.982 123.549C401.469 117.697 402.569 108.688 404.758 103.277C409.009 92.8005 416.464 83.8398 427.137 78.9274C447.895 69.4404 473.901 78.3698 485.226 97.9595C491.672 109.046 493.072 124.523 488.615 136.399C486.843 141.121 483.983 145.283 481.37 149.56C488.16 152.412 495.656 158.497 500.914 163.552C509.745 172.045 517.558 180.896 523.985 191.262C526.629 195.518 529.972 201.852 532.041 206.406C532.735 207.939 534.05 212.099 535.241 212.99C536.726 214.105 539.407 213.106 541.051 212.761C546.04 211.735 549.377 211.585 554.453 212.091C569.925 213.622 584.671 223.41 591.501 237.191C605.362 265.181 586.352 301.373 553.37 301.864C548.961 301.929 544.255 301.433 540.036 300.106C515.81 292.466 502.853 271.226 507.626 247.125C508.162 244.413 508.161 243.332 509.194 240.578C510.641 236.731 513.71 231.34 516.229 228.055C517.405 226.535 520.838 223.212 521.02 221.662C521.266 219.589 519.111 214.519 518.247 212.478C515.392 205.753 510.608 196.843 505.632 191.399ZM468.88 118.636C470.623 104.684 454.099 93.8548 440.999 96.6239C435.518 97.7861 429.466 102.144 426.731 106.946L424.628 113.317C423.551 116.332 423.176 118.397 423.973 121.575C425.091 118.235 425.976 115.884 428.319 113.114C435.153 105.038 447.489 102.492 457.255 107.273C463.009 110.091 464.983 114.07 468.88 118.636ZM784.737 213.248C800.381 216.39 813.21 226.616 819.121 241.156C827.359 261.429 818.911 287.08 799.321 297.508C793.395 300.664 789.101 301.714 782.414 302.34C775.34 303.002 769.478 301.929 762.794 299.661C757.33 297.8 752.367 294.649 748.152 290.783C743.278 286.313 739.214 281.571 736.564 275.534C726.023 251.506 737.973 221.898 763.92 214.195C771.576 211.923 776.865 211.983 784.737 213.248ZM335.241 126.394L334.705 103.625L334.567 86.6332C334.663 84.4338 334.662 81.157 335.914 79.3154C339.117 74.6041 352.392 74.8505 355.139 80.2621C356.825 83.5827 356.52 95.9026 356.58 100.201L357.406 143.54C357.48 149.015 359.138 159.585 353.208 162.4C349.115 164.35 341.432 163.93 337.667 161.185C335.507 159.609 333.064 156.006 331.311 153.821L319.413 138.845L299.77 114.066L300.088 136.763L300.289 151.657C300.29 154.029 300.319 157.689 299.02 159.713C295.668 164.921 282.286 164.73 279.446 158.786C277.965 155.683 278.245 142.881 278.191 138.768L277.365 95.4285C277.292 90.1934 275.754 79.4382 281.574 76.889C285.684 75.0867 293.189 75.6465 296.925 78.3249C299.016 79.8221 301.689 83.4793 303.323 85.562L315.147 100.761L335.241 126.394ZM780.885 233.783C777.166 233.27 774.104 233.164 770.48 234.25C750.735 240.158 747.968 271.377 769.996 280.07C781.929 284.777 796.229 277.643 799.529 265.804C803.492 251.589 796.202 237.227 780.885 233.783ZM653.282 276.489C653.345 281.064 654.232 293.083 652.316 296.649C649.584 301.727 637.761 301.893 633.819 297.952C630.581 294.718 631.572 285.066 631.381 280.611L630.542 233.737C630.473 229.026 629.191 218.736 632.673 215.399C635.581 212.624 641.097 213.02 644.943 213.036C654.315 213.085 667.97 212.356 676.644 214.605C678.553 215.103 682.536 216.945 684.34 217.911C699.563 226.033 703.671 241.669 698.611 256.745C696.164 264.049 692.694 264.797 693.088 268.351C693.359 270.748 699.185 282.373 700.571 285.629C701.678 288.223 703.113 291.835 701.919 294.544C699.625 299.738 688.579 303.807 683.767 299.484C681.636 297.557 680.732 294.662 679.539 292.153C677.549 287.978 673.823 280.812 673.016 276.601L653.282 276.489ZM223.057 75.8279C230.614 77.3364 230.452 81.3785 230.745 87.9199L231.066 108.501C231.18 116.763 231.844 130.566 228.727 138.096C226.604 143.218 222.984 150.059 219.024 153.98C209.029 163.866 192.028 167.629 178.427 162.207C163.862 156.396 154.901 144.148 152.194 129.259L151.168 102.093L150.939 85.7782C150.909 82.7188 150.797 79.6886 153.289 77.4407C155.487 75.4631 159.529 75.2202 162.431 75.367C164.152 75.4571 167.099 75.7801 168.629 76.5349C173.806 79.0856 173.126 88.9736 173.196 93.7763L173.492 115.055C173.563 120.184 173.23 124.629 174.861 129.625C176.87 135.784 180.302 141.003 187.055 142.729C193.537 144.387 201.486 142.203 205.194 136.739C206.729 134.482 207.513 131.865 208.333 129.295C209.817 124.599 209.302 120.349 209.237 115.47L208.7 92.7001C208.586 84.2187 206.758 76.2908 218.031 75.5293C219.95 75.395 221.184 75.5805 223.057 75.8279ZM299.98 113.429L299.319 113.213L299.77 114.066L299.98 113.429ZM652.689 233.932C652.134 237.387 652.278 240.942 652.453 244.446C652.56 246.408 652.445 253.389 653.556 254.614C654.936 256.133 660.363 255.666 662.377 255.599C667.531 255.423 672.393 256.133 676.421 252.299C679.884 248.992 682.224 237.205 669.322 234.566L652.689 233.932ZM97.8536 75.7849C99.6762 76.2971 100.811 76.5641 102.072 78.1344C105.037 81.8384 104.377 95.8359 104.446 100.906L104.681 116.516C105.181 130.992 106.645 143.968 95.2753 155.093C92.1498 158.149 88.984 160.374 84.7917 161.916C73.3478 166.125 61.806 164.065 52.0285 156.907C48.7301 154.5 44.0151 149.884 44.604 145.551C45.0611 142.17 51.7303 133.948 57.7186 135.24C63.1505 136.419 68.0633 146.269 77.3939 141.318C78.4862 140.738 79.5787 139.825 80.4036 138.923C83.8657 135.136 82.9206 129.637 82.8592 124.899L82.3998 92.2713C82.3498 88.3641 81.8183 81.2137 84.4414 78.1266C87.4032 74.6342 93.6741 75.1361 97.8536 75.7849ZM569.723 243.464C564.843 233.471 549.781 230.23 540.338 235.277C529.177 241.251 524.143 257.712 531.481 268.356C531.67 264.259 531.211 259.971 532.763 256.067C536.67 246.212 547.384 239.641 558.297 240.37C562.38 240.642 565.899 242.184 569.723 243.464ZM418.606 199.926C428.14 201.701 433.902 206.315 436.877 215.472C438.484 220.425 438.261 226.537 442.253 230.324C445.482 233.387 455.503 232.597 460.591 234.666C472.25 239.41 480.49 250.356 482.73 262.268C486.782 283.838 471.2 301.312 450.266 305.856C443.207 307.384 436.246 307.596 429.325 304.962C422.578 302.398 419.033 298.454 416.241 292.025C414.499 288.031 413.78 283.022 410.488 279.953C405.274 275.096 397.026 276.946 390.162 274.98C382.809 272.875 376.844 267.369 373.937 260.514C371.482 254.711 370.89 248.162 371.301 241.998C372.457 224.634 381.229 210.641 397.687 203.401C404.534 200.384 411.041 199.127 418.606 199.926ZM416.223 216.013C411.711 215.572 408.531 216.535 404.473 218.333C393.351 223.275 388.977 231.776 388.097 243.266C387.831 246.821 387.814 250.819 389.254 254.2C392.732 262.364 399.576 258.598 409.973 261.554C418.336 263.926 424.441 269.343 428.263 276.929C431.566 283.491 430.468 288.97 437.768 290.479C440.691 291.076 443.876 290.609 446.724 289.967C460.883 286.762 470.86 275 464.942 260.676C463.959 258.306 462.597 255.848 460.769 254.084C454.612 247.251 448.682 249.573 440.946 247.589C436.469 246.688 431.727 243.397 428.797 240.028C425.445 236.185 423.634 231.8 422.45 226.985C421.297 222.314 421.681 217.603 416.223 216.013ZM532.142 268.572L531.481 268.356L531.932 269.209L532.142 268.572ZM306.228 278.575L335.463 278.742C339.325 278.757 346.388 278.324 349.856 279.51C356.059 281.635 356.177 290.704 353.973 295.63C351.937 300.174 347.505 299.979 343.076 300.046L314.566 299.897L294.879 299.639C292.119 299.504 288.39 298.933 286.508 296.896C283.827 293.483 284.364 282.807 284.301 278.452L283.446 232.984C283.382 228.232 282.262 217.274 286.294 214.176C289.777 211.503 297.394 212.142 301.795 212.166L337.681 212.152C342.621 212.182 350.189 211.26 352.841 216.379C355.264 221.041 354.755 230.808 349.061 232.84C346.146 233.884 337.717 233.642 334.253 233.623L305.816 233.252L305.544 245.166L325.979 245.373C328.793 245.298 334.918 245.244 337.261 246.69C342.221 249.762 342.467 262.39 337.38 265.333C334.881 266.781 329.934 266.748 326.968 266.773L305.84 266.445L306.228 278.575ZM195.518 232.417L176.514 232.312C173.848 232.293 168.975 232.37 166.617 231.238C161.593 228.822 161.154 217.953 166.231 215.62C169.425 214.153 184.469 214.697 188.913 214.72L218.151 214.88L240.148 214.794C242.331 215.058 245.094 215.249 246.729 216.95C249.886 219.898 250.101 228.759 246.107 231.101C243.636 232.55 238.702 232.438 235.789 232.43L216.785 232.325L217.707 282.757C217.77 287.466 218.976 297.787 214.864 300.818C211.651 303.182 202.551 303.307 199.313 300.807C197.775 299.61 197.087 298.149 196.683 296.33L195.835 270.647L195.518 232.417Z" fill="black"/>
</svg>
